<?xml version="1.0" encoding="utf-8" standalone="no"?>
<!DOCTYPE svg PUBLIC "-//W3C//DTD SVG 1.1//EN"
  "http://www.w3.org/Graphics/SVG/1.1/DTD/svg11.dtd">
<!-- Created with matplotlib (https://matplotlib.org/) -->
<svg height="288pt" version="1.1" viewBox="0 0 432 288" width="432pt" xmlns="http://www.w3.org/2000/svg" xmlns:xlink="http://www.w3.org/1999/xlink">
 <defs>
  <style type="text/css">
*{stroke-linecap:butt;stroke-linejoin:round;}
  </style>
 </defs>
 <g id="figure_1">
  <g id="patch_1">
   <path d="M 0 288 
L 432 288 
L 432 0 
L 0 0 
z
" style="fill:#ffffff;"/>
  </g>
  <g id="axes_1">
   <g id="patch_2">
    <path d="M 54 252 
L 388.8 252 
L 388.8 34.56 
L 54 34.56 
z
" style="fill:#ffffff;"/>
   </g>
   <g id="PathCollection_1">
    <defs>
     <path d="M 0 3 
C 0.795609 3 1.55874 2.683901 2.12132 2.12132 
C 2.683901 1.55874 3 0.795609 3 0 
C 3 -0.795609 2.683901 -1.55874 2.12132 -2.12132 
C 1.55874 -2.683901 0.795609 -3 0 -3 
C -0.795609 -3 -1.55874 -2.683901 -2.12132 -2.12132 
C -2.683901 -1.55874 -3 -0.795609 -3 0 
C -3 0.795609 -2.683901 1.55874 -2.12132 2.12132 
C -1.55874 2.683901 -0.795609 3 0 3 
z
" id="maedaafe988" style="stroke:#ffffff;stroke-width:0.75;"/>
    </defs>
    <g clip-path="url(#p8c2562c3e1)">
     <use style="fill:#1f77b4;stroke:#ffffff;stroke-width:0.75;" x="95.823569" xlink:href="#maedaafe988" y="242.116358"/>
     <use style="fill:#1f77b4;stroke:#ffffff;stroke-width:0.75;" x="69.545767" xlink:href="#maedaafe988" y="240.327465"/>
     <use style="fill:#1f77b4;stroke:#ffffff;stroke-width:0.75;" x="73.719382" xlink:href="#maedaafe988" y="238.538571"/>
     <use style="fill:#1f77b4;stroke:#ffffff;stroke-width:0.75;" x="71.337797" xlink:href="#maedaafe988" y="236.749678"/>
     <use style="fill:#1f77b4;stroke:#ffffff;stroke-width:0.75;" x="70.795601" xlink:href="#maedaafe988" y="234.960785"/>
     <use style="fill:#1f77b4;stroke:#ffffff;stroke-width:0.75;" x="86.340499" xlink:href="#maedaafe988" y="233.171891"/>
     <use style="fill:#1f77b4;stroke:#ffffff;stroke-width:0.75;" x="86.867806" xlink:href="#maedaafe988" y="231.382998"/>
     <use style="fill:#1f77b4;stroke:#ffffff;stroke-width:0.75;" x="88.510544" xlink:href="#maedaafe988" y="229.594105"/>
     <use style="fill:#1f77b4;stroke:#ffffff;stroke-width:0.75;" x="91.606516" xlink:href="#maedaafe988" y="227.805211"/>
     <use style="fill:#1f77b4;stroke:#ffffff;stroke-width:0.75;" x="92.337918" xlink:href="#maedaafe988" y="226.016318"/>
     <use style="fill:#1f77b4;stroke:#ffffff;stroke-width:0.75;" x="92.956388" xlink:href="#maedaafe988" y="224.227425"/>
     <use style="fill:#1f77b4;stroke:#ffffff;stroke-width:0.75;" x="89.918777" xlink:href="#maedaafe988" y="222.438531"/>
     <use style="fill:#1f77b4;stroke:#ffffff;stroke-width:0.75;" x="95.818252" xlink:href="#maedaafe988" y="220.649638"/>
     <use style="fill:#1f77b4;stroke:#ffffff;stroke-width:0.75;" x="87.40681" xlink:href="#maedaafe988" y="218.860745"/>
     <use style="fill:#1f77b4;stroke:#ffffff;stroke-width:0.75;" x="79.887695" xlink:href="#maedaafe988" y="240.327465"/>
     <use style="fill:#1f77b4;stroke:#ffffff;stroke-width:0.75;" x="113.147303" xlink:href="#maedaafe988" y="237.644125"/>
     <use style="fill:#1f77b4;stroke:#ffffff;stroke-width:0.75;" x="86.68159" xlink:href="#maedaafe988" y="234.960785"/>
     <use style="fill:#1f77b4;stroke:#ffffff;stroke-width:0.75;" x="90.245477" xlink:href="#maedaafe988" y="232.277445"/>
     <use style="fill:#1f77b4;stroke:#ffffff;stroke-width:0.75;" x="88.009593" xlink:href="#maedaafe988" y="229.594105"/>
     <use style="fill:#1f77b4;stroke:#ffffff;stroke-width:0.75;" x="114.096162" xlink:href="#maedaafe988" y="226.910765"/>
     <use style="fill:#1f77b4;stroke:#ffffff;stroke-width:0.75;" x="94.652668" xlink:href="#maedaafe988" y="224.227425"/>
     <use style="fill:#1f77b4;stroke:#ffffff;stroke-width:0.75;" x="92.904474" xlink:href="#maedaafe988" y="221.544085"/>
     <use style="fill:#1f77b4;stroke:#ffffff;stroke-width:0.75;" x="87.281947" xlink:href="#maedaafe988" y="218.860745"/>
     <use style="fill:#1f77b4;stroke:#ffffff;stroke-width:0.75;" x="84.646878" xlink:href="#maedaafe988" y="216.177404"/>
     <use style="fill:#1f77b4;stroke:#ffffff;stroke-width:0.75;" x="79.165233" xlink:href="#maedaafe988" y="213.494064"/>
     <use style="fill:#1f77b4;stroke:#ffffff;stroke-width:0.75;" x="80.759183" xlink:href="#maedaafe988" y="210.810724"/>
     <use style="fill:#1f77b4;stroke:#ffffff;stroke-width:0.75;" x="81.023268" xlink:href="#maedaafe988" y="208.127384"/>
     <use style="fill:#1f77b4;stroke:#ffffff;stroke-width:0.75;" x="81.572443" xlink:href="#maedaafe988" y="205.444044"/>
     <use style="fill:#1f77b4;stroke:#ffffff;stroke-width:0.75;" x="73.543137" xlink:href="#maedaafe988" y="238.538571"/>
     <use style="fill:#1f77b4;stroke:#ffffff;stroke-width:0.75;" x="77.108154" xlink:href="#maedaafe988" y="234.960785"/>
     <use style="fill:#1f77b4;stroke:#ffffff;stroke-width:0.75;" x="81.695279" xlink:href="#maedaafe988" y="231.382998"/>
     <use style="fill:#1f77b4;stroke:#ffffff;stroke-width:0.75;" x="85.820172" xlink:href="#maedaafe988" y="227.805211"/>
     <use style="fill:#1f77b4;stroke:#ffffff;stroke-width:0.75;" x="83.436094" xlink:href="#maedaafe988" y="224.227425"/>
     <use style="fill:#1f77b4;stroke:#ffffff;stroke-width:0.75;" x="84.332841" xlink:href="#maedaafe988" y="220.649638"/>
     <use style="fill:#1f77b4;stroke:#ffffff;stroke-width:0.75;" x="85.323908" xlink:href="#maedaafe988" y="217.071851"/>
     <use style="fill:#1f77b4;stroke:#ffffff;stroke-width:0.75;" x="88.160979" xlink:href="#maedaafe988" y="213.494064"/>
     <use style="fill:#1f77b4;stroke:#ffffff;stroke-width:0.75;" x="89.214494" xlink:href="#maedaafe988" y="209.916278"/>
     <use style="fill:#1f77b4;stroke:#ffffff;stroke-width:0.75;" x="88.870845" xlink:href="#maedaafe988" y="206.338491"/>
     <use style="fill:#1f77b4;stroke:#ffffff;stroke-width:0.75;" x="89.599787" xlink:href="#maedaafe988" y="202.760704"/>
     <use style="fill:#1f77b4;stroke:#ffffff;stroke-width:0.75;" x="90.386759" xlink:href="#maedaafe988" y="199.182918"/>
     <use style="fill:#1f77b4;stroke:#ffffff;stroke-width:0.75;" x="92.208534" xlink:href="#maedaafe988" y="195.605131"/>
     <use style="fill:#1f77b4;stroke:#ffffff;stroke-width:0.75;" x="91.857739" xlink:href="#maedaafe988" y="192.027344"/>
     <use style="fill:#1f77b4;stroke:#ffffff;stroke-width:0.75;" x="76.299713" xlink:href="#maedaafe988" y="236.749678"/>
     <use style="fill:#1f77b4;stroke:#ffffff;stroke-width:0.75;" x="81.846465" xlink:href="#maedaafe988" y="232.277445"/>
     <use style="fill:#1f77b4;stroke:#ffffff;stroke-width:0.75;" x="87.56481" xlink:href="#maedaafe988" y="227.805211"/>
     <use style="fill:#1f77b4;stroke:#ffffff;stroke-width:0.75;" x="99.293634" xlink:href="#maedaafe988" y="223.332978"/>
     <use style="fill:#1f77b4;stroke:#ffffff;stroke-width:0.75;" x="96.568365" xlink:href="#maedaafe988" y="218.860745"/>
     <use style="fill:#1f77b4;stroke:#ffffff;stroke-width:0.75;" x="97.855224" xlink:href="#maedaafe988" y="214.388511"/>
     <use style="fill:#1f77b4;stroke:#ffffff;stroke-width:0.75;" x="101.529351" xlink:href="#maedaafe988" y="209.916278"/>
     <use style="fill:#1f77b4;stroke:#ffffff;stroke-width:0.75;" x="98.764865" xlink:href="#maedaafe988" y="205.444044"/>
     <use style="fill:#1f77b4;stroke:#ffffff;stroke-width:0.75;" x="99.658886" xlink:href="#maedaafe988" y="200.971811"/>
     <use style="fill:#1f77b4;stroke:#ffffff;stroke-width:0.75;" x="105.178884" xlink:href="#maedaafe988" y="196.499577"/>
     <use style="fill:#1f77b4;stroke:#ffffff;stroke-width:0.75;" x="102.185742" xlink:href="#maedaafe988" y="192.027344"/>
     <use style="fill:#1f77b4;stroke:#ffffff;stroke-width:0.75;" x="105.28158" xlink:href="#maedaafe988" y="187.555111"/>
     <use style="fill:#1f77b4;stroke:#ffffff;stroke-width:0.75;" x="104.867805" xlink:href="#maedaafe988" y="183.082877"/>
     <use style="fill:#1f77b4;stroke:#ffffff;stroke-width:0.75;" x="105.526854" xlink:href="#maedaafe988" y="178.610644"/>
     <use style="fill:#1f77b4;stroke:#ffffff;stroke-width:0.75;" x="78.308302" xlink:href="#maedaafe988" y="234.960785"/>
     <use style="fill:#1f77b4;stroke:#ffffff;stroke-width:0.75;" x="86.471645" xlink:href="#maedaafe988" y="229.594105"/>
     <use style="fill:#1f77b4;stroke:#ffffff;stroke-width:0.75;" x="97.147319" xlink:href="#maedaafe988" y="224.227425"/>
     <use style="fill:#1f77b4;stroke:#ffffff;stroke-width:0.75;" x="108.647619" xlink:href="#maedaafe988" y="218.860745"/>
     <use style="fill:#1f77b4;stroke:#ffffff;stroke-width:0.75;" x="107.304926" xlink:href="#maedaafe988" y="213.494064"/>
     <use style="fill:#1f77b4;stroke:#ffffff;stroke-width:0.75;" x="108.486762" xlink:href="#maedaafe988" y="208.127384"/>
     <use style="fill:#1f77b4;stroke:#ffffff;stroke-width:0.75;" x="110.579568" xlink:href="#maedaafe988" y="202.760704"/>
     <use style="fill:#1f77b4;stroke:#ffffff;stroke-width:0.75;" x="111.688952" xlink:href="#maedaafe988" y="197.394024"/>
     <use style="fill:#1f77b4;stroke:#ffffff;stroke-width:0.75;" x="116.35614" xlink:href="#maedaafe988" y="192.027344"/>
     <use style="fill:#1f77b4;stroke:#ffffff;stroke-width:0.75;" x="114.871534" xlink:href="#maedaafe988" y="186.660664"/>
     <use style="fill:#1f77b4;stroke:#ffffff;stroke-width:0.75;" x="116.967664" xlink:href="#maedaafe988" y="181.293984"/>
     <use style="fill:#1f77b4;stroke:#ffffff;stroke-width:0.75;" x="118.206997" xlink:href="#maedaafe988" y="175.927304"/>
     <use style="fill:#1f77b4;stroke:#ffffff;stroke-width:0.75;" x="120.183148" xlink:href="#maedaafe988" y="170.560624"/>
     <use style="fill:#1f77b4;stroke:#ffffff;stroke-width:0.75;" x="121.500251" xlink:href="#maedaafe988" y="165.193944"/>
     <use style="fill:#1f77b4;stroke:#ffffff;stroke-width:0.75;" x="81.51807" xlink:href="#maedaafe988" y="233.171891"/>
     <use style="fill:#1f77b4;stroke:#ffffff;stroke-width:0.75;" x="90.022071" xlink:href="#maedaafe988" y="226.910765"/>
     <use style="fill:#1f77b4;stroke:#ffffff;stroke-width:0.75;" x="99.573805" xlink:href="#maedaafe988" y="220.649638"/>
     <use style="fill:#1f77b4;stroke:#ffffff;stroke-width:0.75;" x="115.643582" xlink:href="#maedaafe988" y="214.388511"/>
     <use style="fill:#1f77b4;stroke:#ffffff;stroke-width:0.75;" x="118.072727" xlink:href="#maedaafe988" y="208.127384"/>
     <use style="fill:#1f77b4;stroke:#ffffff;stroke-width:0.75;" x="126.015223" xlink:href="#maedaafe988" y="201.866258"/>
     <use style="fill:#1f77b4;stroke:#ffffff;stroke-width:0.75;" x="125.653294" xlink:href="#maedaafe988" y="195.605131"/>
     <use style="fill:#1f77b4;stroke:#ffffff;stroke-width:0.75;" x="128.941563" xlink:href="#maedaafe988" y="189.344004"/>
     <use style="fill:#1f77b4;stroke:#ffffff;stroke-width:0.75;" x="134.18139" xlink:href="#maedaafe988" y="183.082877"/>
     <use style="fill:#1f77b4;stroke:#ffffff;stroke-width:0.75;" x="131.963287" xlink:href="#maedaafe988" y="176.821751"/>
     <use style="fill:#1f77b4;stroke:#ffffff;stroke-width:0.75;" x="138.712315" xlink:href="#maedaafe988" y="170.560624"/>
     <use style="fill:#1f77b4;stroke:#ffffff;stroke-width:0.75;" x="136.448348" xlink:href="#maedaafe988" y="164.299497"/>
     <use style="fill:#1f77b4;stroke:#ffffff;stroke-width:0.75;" x="141.581823" xlink:href="#maedaafe988" y="158.03837"/>
     <use style="fill:#1f77b4;stroke:#ffffff;stroke-width:0.75;" x="140.124137" xlink:href="#maedaafe988" y="151.777243"/>
     <use style="fill:#1f77b4;stroke:#ffffff;stroke-width:0.75;" x="86.74909" xlink:href="#maedaafe988" y="231.382998"/>
     <use style="fill:#1f77b4;stroke:#ffffff;stroke-width:0.75;" x="93.992787" xlink:href="#maedaafe988" y="224.227425"/>
     <use style="fill:#1f77b4;stroke:#ffffff;stroke-width:0.75;" x="109.252828" xlink:href="#maedaafe988" y="217.071851"/>
     <use style="fill:#1f77b4;stroke:#ffffff;stroke-width:0.75;" x="127.299423" xlink:href="#maedaafe988" y="209.916278"/>
     <use style="fill:#1f77b4;stroke:#ffffff;stroke-width:0.75;" x="131.232118" xlink:href="#maedaafe988" y="202.760704"/>
     <use style="fill:#1f77b4;stroke:#ffffff;stroke-width:0.75;" x="142.1302" xlink:href="#maedaafe988" y="195.605131"/>
     <use style="fill:#1f77b4;stroke:#ffffff;stroke-width:0.75;" x="148.784841" xlink:href="#maedaafe988" y="188.449557"/>
     <use style="fill:#1f77b4;stroke:#ffffff;stroke-width:0.75;" x="147.299569" xlink:href="#maedaafe988" y="181.293984"/>
     <use style="fill:#1f77b4;stroke:#ffffff;stroke-width:0.75;" x="150.356191" xlink:href="#maedaafe988" y="174.13841"/>
     <use style="fill:#1f77b4;stroke:#ffffff;stroke-width:0.75;" x="156.749936" xlink:href="#maedaafe988" y="166.982837"/>
     <use style="fill:#1f77b4;stroke:#ffffff;stroke-width:0.75;" x="161.243306" xlink:href="#maedaafe988" y="159.827264"/>
     <use style="fill:#1f77b4;stroke:#ffffff;stroke-width:0.75;" x="160.444337" xlink:href="#maedaafe988" y="152.67169"/>
     <use style="fill:#1f77b4;stroke:#ffffff;stroke-width:0.75;" x="165.961343" xlink:href="#maedaafe988" y="145.516117"/>
     <use style="fill:#1f77b4;stroke:#ffffff;stroke-width:0.75;" x="169.049205" xlink:href="#maedaafe988" y="138.360543"/>
     <use style="fill:#1f77b4;stroke:#ffffff;stroke-width:0.75;" x="87.914142" xlink:href="#maedaafe988" y="229.594105"/>
     <use style="fill:#1f77b4;stroke:#ffffff;stroke-width:0.75;" x="103.176809" xlink:href="#maedaafe988" y="221.544085"/>
     <use style="fill:#1f77b4;stroke:#ffffff;stroke-width:0.75;" x="128.25659" xlink:href="#maedaafe988" y="213.494064"/>
     <use style="fill:#1f77b4;stroke:#ffffff;stroke-width:0.75;" x="140.014462" xlink:href="#maedaafe988" y="205.444044"/>
     <use style="fill:#1f77b4;stroke:#ffffff;stroke-width:0.75;" x="140.199248" xlink:href="#maedaafe988" y="197.394024"/>
     <use style="fill:#1f77b4;stroke:#ffffff;stroke-width:0.75;" x="151.41406" xlink:href="#maedaafe988" y="189.344004"/>
     <use style="fill:#1f77b4;stroke:#ffffff;stroke-width:0.75;" x="161.267567" xlink:href="#maedaafe988" y="181.293984"/>
     <use style="fill:#1f77b4;stroke:#ffffff;stroke-width:0.75;" x="172.264357" xlink:href="#maedaafe988" y="173.243964"/>
     <use style="fill:#1f77b4;stroke:#ffffff;stroke-width:0.75;" x="172.746265" xlink:href="#maedaafe988" y="165.193944"/>
     <use style="fill:#1f77b4;stroke:#ffffff;stroke-width:0.75;" x="171.005084" xlink:href="#maedaafe988" y="157.143924"/>
     <use style="fill:#1f77b4;stroke:#ffffff;stroke-width:0.75;" x="184.423375" xlink:href="#maedaafe988" y="149.093903"/>
     <use style="fill:#1f77b4;stroke:#ffffff;stroke-width:0.75;" x="185.820241" xlink:href="#maedaafe988" y="141.043883"/>
     <use style="fill:#1f77b4;stroke:#ffffff;stroke-width:0.75;" x="199.735396" xlink:href="#maedaafe988" y="132.993863"/>
     <use style="fill:#1f77b4;stroke:#ffffff;stroke-width:0.75;" x="189.861947" xlink:href="#maedaafe988" y="124.943843"/>
     <use style="fill:#1f77b4;stroke:#ffffff;stroke-width:0.75;" x="90.64885" xlink:href="#maedaafe988" y="227.805211"/>
     <use style="fill:#1f77b4;stroke:#ffffff;stroke-width:0.75;" x="105.409867" xlink:href="#maedaafe988" y="218.860745"/>
     <use style="fill:#1f77b4;stroke:#ffffff;stroke-width:0.75;" x="122.065245" xlink:href="#maedaafe988" y="209.916278"/>
     <use style="fill:#1f77b4;stroke:#ffffff;stroke-width:0.75;" x="151.042825" xlink:href="#maedaafe988" y="200.971811"/>
     <use style="fill:#1f77b4;stroke:#ffffff;stroke-width:0.75;" x="144.886377" xlink:href="#maedaafe988" y="192.027344"/>
     <use style="fill:#1f77b4;stroke:#ffffff;stroke-width:0.75;" x="160.682964" xlink:href="#maedaafe988" y="183.082877"/>
     <use style="fill:#1f77b4;stroke:#ffffff;stroke-width:0.75;" x="181.658557" xlink:href="#maedaafe988" y="174.13841"/>
     <use style="fill:#1f77b4;stroke:#ffffff;stroke-width:0.75;" x="191.497773" xlink:href="#maedaafe988" y="165.193944"/>
     <use style="fill:#1f77b4;stroke:#ffffff;stroke-width:0.75;" x="207.12187" xlink:href="#maedaafe988" y="156.249477"/>
     <use style="fill:#1f77b4;stroke:#ffffff;stroke-width:0.75;" x="204.501292" xlink:href="#maedaafe988" y="147.30501"/>
     <use style="fill:#1f77b4;stroke:#ffffff;stroke-width:0.75;" x="202.783376" xlink:href="#maedaafe988" y="138.360543"/>
     <use style="fill:#1f77b4;stroke:#ffffff;stroke-width:0.75;" x="209.654043" xlink:href="#maedaafe988" y="129.416076"/>
     <use style="fill:#1f77b4;stroke:#ffffff;stroke-width:0.75;" x="214.5572" xlink:href="#maedaafe988" y="120.47161"/>
     <use style="fill:#1f77b4;stroke:#ffffff;stroke-width:0.75;" x="219.403857" xlink:href="#maedaafe988" y="111.527143"/>
     <use style="fill:#1f77b4;stroke:#ffffff;stroke-width:0.75;" x="93.796601" xlink:href="#maedaafe988" y="226.016318"/>
     <use style="fill:#1f77b4;stroke:#ffffff;stroke-width:0.75;" x="109.985659" xlink:href="#maedaafe988" y="216.177404"/>
     <use style="fill:#1f77b4;stroke:#ffffff;stroke-width:0.75;" x="126.018546" xlink:href="#maedaafe988" y="206.338491"/>
     <use style="fill:#1f77b4;stroke:#ffffff;stroke-width:0.75;" x="158.10825" xlink:href="#maedaafe988" y="196.499577"/>
     <use style="fill:#1f77b4;stroke:#ffffff;stroke-width:0.75;" x="155.856247" xlink:href="#maedaafe988" y="186.660664"/>
     <use style="fill:#1f77b4;stroke:#ffffff;stroke-width:0.75;" x="174.363147" xlink:href="#maedaafe988" y="176.821751"/>
     <use style="fill:#1f77b4;stroke:#ffffff;stroke-width:0.75;" x="186.907025" xlink:href="#maedaafe988" y="166.982837"/>
     <use style="fill:#1f77b4;stroke:#ffffff;stroke-width:0.75;" x="206.661233" xlink:href="#maedaafe988" y="157.143924"/>
     <use style="fill:#1f77b4;stroke:#ffffff;stroke-width:0.75;" x="222.801802" xlink:href="#maedaafe988" y="147.30501"/>
     <use style="fill:#1f77b4;stroke:#ffffff;stroke-width:0.75;" x="237.862898" xlink:href="#maedaafe988" y="137.466097"/>
     <use style="fill:#1f77b4;stroke:#ffffff;stroke-width:0.75;" x="232.87466" xlink:href="#maedaafe988" y="127.627183"/>
     <use style="fill:#1f77b4;stroke:#ffffff;stroke-width:0.75;" x="247.316588" xlink:href="#maedaafe988" y="117.78827"/>
     <use style="fill:#1f77b4;stroke:#ffffff;stroke-width:0.75;" x="244.060557" xlink:href="#maedaafe988" y="107.949356"/>
     <use style="fill:#1f77b4;stroke:#ffffff;stroke-width:0.75;" x="256.278401" xlink:href="#maedaafe988" y="98.110443"/>
     <use style="fill:#1f77b4;stroke:#ffffff;stroke-width:0.75;" x="95.961494" xlink:href="#maedaafe988" y="224.227425"/>
     <use style="fill:#1f77b4;stroke:#ffffff;stroke-width:0.75;" x="113.811006" xlink:href="#maedaafe988" y="213.494064"/>
     <use style="fill:#1f77b4;stroke:#ffffff;stroke-width:0.75;" x="133.863331" xlink:href="#maedaafe988" y="202.760704"/>
     <use style="fill:#1f77b4;stroke:#ffffff;stroke-width:0.75;" x="172.517276" xlink:href="#maedaafe988" y="192.027344"/>
     <use style="fill:#1f77b4;stroke:#ffffff;stroke-width:0.75;" x="166.782247" xlink:href="#maedaafe988" y="181.293984"/>
     <use style="fill:#1f77b4;stroke:#ffffff;stroke-width:0.75;" x="180.71701" xlink:href="#maedaafe988" y="170.560624"/>
     <use style="fill:#1f77b4;stroke:#ffffff;stroke-width:0.75;" x="197.545875" xlink:href="#maedaafe988" y="159.827264"/>
     <use style="fill:#1f77b4;stroke:#ffffff;stroke-width:0.75;" x="218.189783" xlink:href="#maedaafe988" y="149.093903"/>
     <use style="fill:#1f77b4;stroke:#ffffff;stroke-width:0.75;" x="239.724389" xlink:href="#maedaafe988" y="138.360543"/>
     <use style="fill:#1f77b4;stroke:#ffffff;stroke-width:0.75;" x="260.030298" xlink:href="#maedaafe988" y="127.627183"/>
     <use style="fill:#1f77b4;stroke:#ffffff;stroke-width:0.75;" x="275.845163" xlink:href="#maedaafe988" y="116.893823"/>
     <use style="fill:#1f77b4;stroke:#ffffff;stroke-width:0.75;" x="271.047029" xlink:href="#maedaafe988" y="106.160463"/>
     <use style="fill:#1f77b4;stroke:#ffffff;stroke-width:0.75;" x="277.10776" xlink:href="#maedaafe988" y="95.427103"/>
     <use style="fill:#1f77b4;stroke:#ffffff;stroke-width:0.75;" x="281.387761" xlink:href="#maedaafe988" y="84.693742"/>
     <use style="fill:#1f77b4;stroke:#ffffff;stroke-width:0.75;" x="100.520004" xlink:href="#maedaafe988" y="222.438531"/>
     <use style="fill:#1f77b4;stroke:#ffffff;stroke-width:0.75;" x="125.270427" xlink:href="#maedaafe988" y="210.810724"/>
     <use style="fill:#1f77b4;stroke:#ffffff;stroke-width:0.75;" x="138.436132" xlink:href="#maedaafe988" y="199.182918"/>
     <use style="fill:#1f77b4;stroke:#ffffff;stroke-width:0.75;" x="179.664126" xlink:href="#maedaafe988" y="187.555111"/>
     <use style="fill:#1f77b4;stroke:#ffffff;stroke-width:0.75;" x="177.439709" xlink:href="#maedaafe988" y="175.927304"/>
     <use style="fill:#1f77b4;stroke:#ffffff;stroke-width:0.75;" x="195.149633" xlink:href="#maedaafe988" y="164.299497"/>
     <use style="fill:#1f77b4;stroke:#ffffff;stroke-width:0.75;" x="201.221664" xlink:href="#maedaafe988" y="152.67169"/>
     <use style="fill:#1f77b4;stroke:#ffffff;stroke-width:0.75;" x="229.329817" xlink:href="#maedaafe988" y="141.043883"/>
     <use style="fill:#1f77b4;stroke:#ffffff;stroke-width:0.75;" x="240.691195" xlink:href="#maedaafe988" y="129.416076"/>
     <use style="fill:#1f77b4;stroke:#ffffff;stroke-width:0.75;" x="267.717216" xlink:href="#maedaafe988" y="117.78827"/>
     <use style="fill:#1f77b4;stroke:#ffffff;stroke-width:0.75;" x="268.853188" xlink:href="#maedaafe988" y="106.160463"/>
     <use style="fill:#1f77b4;stroke:#ffffff;stroke-width:0.75;" x="278.451118" xlink:href="#maedaafe988" y="94.532656"/>
     <use style="fill:#1f77b4;stroke:#ffffff;stroke-width:0.75;" x="301.86483" xlink:href="#maedaafe988" y="82.904849"/>
     <use style="fill:#1f77b4;stroke:#ffffff;stroke-width:0.75;" x="298.5184" xlink:href="#maedaafe988" y="71.277042"/>
     <use style="fill:#1f77b4;stroke:#ffffff;stroke-width:0.75;" x="99.930748" xlink:href="#maedaafe988" y="220.649638"/>
     <use style="fill:#1f77b4;stroke:#ffffff;stroke-width:0.75;" x="120.864798" xlink:href="#maedaafe988" y="208.127384"/>
     <use style="fill:#1f77b4;stroke:#ffffff;stroke-width:0.75;" x="137.347022" xlink:href="#maedaafe988" y="195.605131"/>
     <use style="fill:#1f77b4;stroke:#ffffff;stroke-width:0.75;" x="180.703716" xlink:href="#maedaafe988" y="183.082877"/>
     <use style="fill:#1f77b4;stroke:#ffffff;stroke-width:0.75;" x="179.58835" xlink:href="#maedaafe988" y="170.560624"/>
     <use style="fill:#1f77b4;stroke:#ffffff;stroke-width:0.75;" x="199.330926" xlink:href="#maedaafe988" y="158.03837"/>
     <use style="fill:#1f77b4;stroke:#ffffff;stroke-width:0.75;" x="209.639752" xlink:href="#maedaafe988" y="145.516117"/>
     <use style="fill:#1f77b4;stroke:#ffffff;stroke-width:0.75;" x="238.811092" xlink:href="#maedaafe988" y="132.993863"/>
     <use style="fill:#1f77b4;stroke:#ffffff;stroke-width:0.75;" x="257.734093" xlink:href="#maedaafe988" y="120.47161"/>
     <use style="fill:#1f77b4;stroke:#ffffff;stroke-width:0.75;" x="272.059367" xlink:href="#maedaafe988" y="107.949356"/>
     <use style="fill:#1f77b4;stroke:#ffffff;stroke-width:0.75;" x="298.396427" xlink:href="#maedaafe988" y="95.427103"/>
     <use style="fill:#1f77b4;stroke:#ffffff;stroke-width:0.75;" x="315.743093" xlink:href="#maedaafe988" y="82.904849"/>
     <use style="fill:#1f77b4;stroke:#ffffff;stroke-width:0.75;" x="369.326191" xlink:href="#maedaafe988" y="70.382596"/>
     <use style="fill:#1f77b4;stroke:#ffffff;stroke-width:0.75;" x="329.520654" xlink:href="#maedaafe988" y="57.860342"/>
     <use style="fill:#1f77b4;stroke:#ffffff;stroke-width:0.75;" x="104.002366" xlink:href="#maedaafe988" y="218.860745"/>
     <use style="fill:#1f77b4;stroke:#ffffff;stroke-width:0.75;" x="130.404899" xlink:href="#maedaafe988" y="205.444044"/>
     <use style="fill:#1f77b4;stroke:#ffffff;stroke-width:0.75;" x="144.280836" xlink:href="#maedaafe988" y="192.027344"/>
     <use style="fill:#1f77b4;stroke:#ffffff;stroke-width:0.75;" x="192.161476" xlink:href="#maedaafe988" y="178.610644"/>
     <use style="fill:#1f77b4;stroke:#ffffff;stroke-width:0.75;" x="194.59195" xlink:href="#maedaafe988" y="165.193944"/>
     <use style="fill:#1f77b4;stroke:#ffffff;stroke-width:0.75;" x="213.501657" xlink:href="#maedaafe988" y="151.777243"/>
     <use style="fill:#1f77b4;stroke:#ffffff;stroke-width:0.75;" x="222.781861" xlink:href="#maedaafe988" y="138.360543"/>
     <use style="fill:#1f77b4;stroke:#ffffff;stroke-width:0.75;" x="252.776098" xlink:href="#maedaafe988" y="124.943843"/>
     <use style="fill:#1f77b4;stroke:#ffffff;stroke-width:0.75;" x="275.536743" xlink:href="#maedaafe988" y="111.527143"/>
     <use style="fill:#1f77b4;stroke:#ffffff;stroke-width:0.75;" x="289.845399" xlink:href="#maedaafe988" y="98.110443"/>
     <use style="fill:#1f77b4;stroke:#ffffff;stroke-width:0.75;" x="317.823271" xlink:href="#maedaafe988" y="84.693742"/>
     <use style="fill:#1f77b4;stroke:#ffffff;stroke-width:0.75;" x="348.025559" xlink:href="#maedaafe988" y="71.277042"/>
     <use style="fill:#1f77b4;stroke:#ffffff;stroke-width:0.75;" x="370.366113" xlink:href="#maedaafe988" y="57.860342"/>
     <use style="fill:#1f77b4;stroke:#ffffff;stroke-width:0.75;" x="373.254233" xlink:href="#maedaafe988" y="44.443642"/>
    </g>
   </g>
   <g id="matplotlib.axis_1">
    <g id="xtick_1">
     <g id="line2d_1">
      <defs>
       <path d="M 0 0 
L 0 3.5 
" id="m19bd33d82c" style="stroke:#000000;stroke-width:0.8;"/>
      </defs>
      <g>
       <use style="stroke:#000000;stroke-width:0.8;" x="62.017612" xlink:href="#m19bd33d82c" y="252"/>
      </g>
     </g>
     <g id="text_1">
      <!-- 0 -->
      <defs>
       <path d="M 31.78125 66.40625 
Q 24.171875 66.40625 20.328125 58.90625 
Q 16.5 51.421875 16.5 36.375 
Q 16.5 21.390625 20.328125 13.890625 
Q 24.171875 6.390625 31.78125 6.390625 
Q 39.453125 6.390625 43.28125 13.890625 
Q 47.125 21.390625 47.125 36.375 
Q 47.125 51.421875 43.28125 58.90625 
Q 39.453125 66.40625 31.78125 66.40625 
z
M 31.78125 74.21875 
Q 44.046875 74.21875 50.515625 64.515625 
Q 56.984375 54.828125 56.984375 36.375 
Q 56.984375 17.96875 50.515625 8.265625 
Q 44.046875 -1.421875 31.78125 -1.421875 
Q 19.53125 -1.421875 13.0625 8.265625 
Q 6.59375 17.96875 6.59375 36.375 
Q 6.59375 54.828125 13.0625 64.515625 
Q 19.53125 74.21875 31.78125 74.21875 
z
" id="DejaVuSans-48"/>
      </defs>
      <g transform="translate(58.836362 266.598437)scale(0.1 -0.1)">
       <use xlink:href="#DejaVuSans-48"/>
      </g>
     </g>
    </g>
    <g id="xtick_2">
     <g id="line2d_2">
      <g>
       <use style="stroke:#000000;stroke-width:0.8;" x="128.487573" xlink:href="#m19bd33d82c" y="252"/>
      </g>
     </g>
     <g id="text_2">
      <!-- 2 -->
      <defs>
       <path d="M 19.1875 8.296875 
L 53.609375 8.296875 
L 53.609375 0 
L 7.328125 0 
L 7.328125 8.296875 
Q 12.9375 14.109375 22.625 23.890625 
Q 32.328125 33.6875 34.8125 36.53125 
Q 39.546875 41.84375 41.421875 45.53125 
Q 43.3125 49.21875 43.3125 52.78125 
Q 43.3125 58.59375 39.234375 62.25 
Q 35.15625 65.921875 28.609375 65.921875 
Q 23.96875 65.921875 18.8125 64.3125 
Q 13.671875 62.703125 7.8125 59.421875 
L 7.8125 69.390625 
Q 13.765625 71.78125 18.9375 73 
Q 24.125 74.21875 28.421875 74.21875 
Q 39.75 74.21875 46.484375 68.546875 
Q 53.21875 62.890625 53.21875 53.421875 
Q 53.21875 48.921875 51.53125 44.890625 
Q 49.859375 40.875 45.40625 35.40625 
Q 44.1875 33.984375 37.640625 27.21875 
Q 31.109375 20.453125 19.1875 8.296875 
z
" id="DejaVuSans-50"/>
      </defs>
      <g transform="translate(125.306323 266.598437)scale(0.1 -0.1)">
       <use xlink:href="#DejaVuSans-50"/>
      </g>
     </g>
    </g>
    <g id="xtick_3">
     <g id="line2d_3">
      <g>
       <use style="stroke:#000000;stroke-width:0.8;" x="194.957535" xlink:href="#m19bd33d82c" y="252"/>
      </g>
     </g>
     <g id="text_3">
      <!-- 4 -->
      <defs>
       <path d="M 37.796875 64.3125 
L 12.890625 25.390625 
L 37.796875 25.390625 
z
M 35.203125 72.90625 
L 47.609375 72.90625 
L 47.609375 25.390625 
L 58.015625 25.390625 
L 58.015625 17.1875 
L 47.609375 17.1875 
L 47.609375 0 
L 37.796875 0 
L 37.796875 17.1875 
L 4.890625 17.1875 
L 4.890625 26.703125 
z
" id="DejaVuSans-52"/>
      </defs>
      <g transform="translate(191.776285 266.598437)scale(0.1 -0.1)">
       <use xlink:href="#DejaVuSans-52"/>
      </g>
     </g>
    </g>
    <g id="xtick_4">
     <g id="line2d_4">
      <g>
       <use style="stroke:#000000;stroke-width:0.8;" x="261.427496" xlink:href="#m19bd33d82c" y="252"/>
      </g>
     </g>
     <g id="text_4">
      <!-- 6 -->
      <defs>
       <path d="M 33.015625 40.375 
Q 26.375 40.375 22.484375 35.828125 
Q 18.609375 31.296875 18.609375 23.390625 
Q 18.609375 15.53125 22.484375 10.953125 
Q 26.375 6.390625 33.015625 6.390625 
Q 39.65625 6.390625 43.53125 10.953125 
Q 47.40625 15.53125 47.40625 23.390625 
Q 47.40625 31.296875 43.53125 35.828125 
Q 39.65625 40.375 33.015625 40.375 
z
M 52.59375 71.296875 
L 52.59375 62.3125 
Q 48.875 64.0625 45.09375 64.984375 
Q 41.3125 65.921875 37.59375 65.921875 
Q 27.828125 65.921875 22.671875 59.328125 
Q 17.53125 52.734375 16.796875 39.40625 
Q 19.671875 43.65625 24.015625 45.921875 
Q 28.375 48.1875 33.59375 48.1875 
Q 44.578125 48.1875 50.953125 41.515625 
Q 57.328125 34.859375 57.328125 23.390625 
Q 57.328125 12.15625 50.6875 5.359375 
Q 44.046875 -1.421875 33.015625 -1.421875 
Q 20.359375 -1.421875 13.671875 8.265625 
Q 6.984375 17.96875 6.984375 36.375 
Q 6.984375 53.65625 15.1875 63.9375 
Q 23.390625 74.21875 37.203125 74.21875 
Q 40.921875 74.21875 44.703125 73.484375 
Q 48.484375 72.75 52.59375 71.296875 
z
" id="DejaVuSans-54"/>
      </defs>
      <g transform="translate(258.246246 266.598437)scale(0.1 -0.1)">
       <use xlink:href="#DejaVuSans-54"/>
      </g>
     </g>
    </g>
    <g id="xtick_5">
     <g id="line2d_5">
      <g>
       <use style="stroke:#000000;stroke-width:0.8;" x="327.897458" xlink:href="#m19bd33d82c" y="252"/>
      </g>
     </g>
     <g id="text_5">
      <!-- 8 -->
      <defs>
       <path d="M 31.78125 34.625 
Q 24.75 34.625 20.71875 30.859375 
Q 16.703125 27.09375 16.703125 20.515625 
Q 16.703125 13.921875 20.71875 10.15625 
Q 24.75 6.390625 31.78125 6.390625 
Q 38.8125 6.390625 42.859375 10.171875 
Q 46.921875 13.96875 46.921875 20.515625 
Q 46.921875 27.09375 42.890625 30.859375 
Q 38.875 34.625 31.78125 34.625 
z
M 21.921875 38.8125 
Q 15.578125 40.375 12.03125 44.71875 
Q 8.5 49.078125 8.5 55.328125 
Q 8.5 64.0625 14.71875 69.140625 
Q 20.953125 74.21875 31.78125 74.21875 
Q 42.671875 74.21875 48.875 69.140625 
Q 55.078125 64.0625 55.078125 55.328125 
Q 55.078125 49.078125 51.53125 44.71875 
Q 48 40.375 41.703125 38.8125 
Q 48.828125 37.15625 52.796875 32.3125 
Q 56.78125 27.484375 56.78125 20.515625 
Q 56.78125 9.90625 50.3125 4.234375 
Q 43.84375 -1.421875 31.78125 -1.421875 
Q 19.734375 -1.421875 13.25 4.234375 
Q 6.78125 9.90625 6.78125 20.515625 
Q 6.78125 27.484375 10.78125 32.3125 
Q 14.796875 37.15625 21.921875 38.8125 
z
M 18.3125 54.390625 
Q 18.3125 48.734375 21.84375 45.5625 
Q 25.390625 42.390625 31.78125 42.390625 
Q 38.140625 42.390625 41.71875 45.5625 
Q 45.3125 48.734375 45.3125 54.390625 
Q 45.3125 60.0625 41.71875 63.234375 
Q 38.140625 66.40625 31.78125 66.40625 
Q 25.390625 66.40625 21.84375 63.234375 
Q 18.3125 60.0625 18.3125 54.390625 
z
" id="DejaVuSans-56"/>
      </defs>
      <g transform="translate(324.716208 266.598437)scale(0.1 -0.1)">
       <use xlink:href="#DejaVuSans-56"/>
      </g>
     </g>
    </g>
    <g id="text_6">
     <!-- tiempo -->
     <defs>
      <path d="M 18.3125 70.21875 
L 18.3125 54.6875 
L 36.8125 54.6875 
L 36.8125 47.703125 
L 18.3125 47.703125 
L 18.3125 18.015625 
Q 18.3125 11.328125 20.140625 9.421875 
Q 21.96875 7.515625 27.59375 7.515625 
L 36.8125 7.515625 
L 36.8125 0 
L 27.59375 0 
Q 17.1875 0 13.234375 3.875 
Q 9.28125 7.765625 9.28125 18.015625 
L 9.28125 47.703125 
L 2.6875 47.703125 
L 2.6875 54.6875 
L 9.28125 54.6875 
L 9.28125 70.21875 
z
" id="DejaVuSans-116"/>
      <path d="M 9.421875 54.6875 
L 18.40625 54.6875 
L 18.40625 0 
L 9.421875 0 
z
M 9.421875 75.984375 
L 18.40625 75.984375 
L 18.40625 64.59375 
L 9.421875 64.59375 
z
" id="DejaVuSans-105"/>
      <path d="M 56.203125 29.59375 
L 56.203125 25.203125 
L 14.890625 25.203125 
Q 15.484375 15.921875 20.484375 11.0625 
Q 25.484375 6.203125 34.421875 6.203125 
Q 39.59375 6.203125 44.453125 7.46875 
Q 49.3125 8.734375 54.109375 11.28125 
L 54.109375 2.78125 
Q 49.265625 0.734375 44.1875 -0.34375 
Q 39.109375 -1.421875 33.890625 -1.421875 
Q 20.796875 -1.421875 13.15625 6.1875 
Q 5.515625 13.8125 5.515625 26.8125 
Q 5.515625 40.234375 12.765625 48.109375 
Q 20.015625 56 32.328125 56 
Q 43.359375 56 49.78125 48.890625 
Q 56.203125 41.796875 56.203125 29.59375 
z
M 47.21875 32.234375 
Q 47.125 39.59375 43.09375 43.984375 
Q 39.0625 48.390625 32.421875 48.390625 
Q 24.90625 48.390625 20.390625 44.140625 
Q 15.875 39.890625 15.1875 32.171875 
z
" id="DejaVuSans-101"/>
      <path d="M 52 44.1875 
Q 55.375 50.25 60.0625 53.125 
Q 64.75 56 71.09375 56 
Q 79.640625 56 84.28125 50.015625 
Q 88.921875 44.046875 88.921875 33.015625 
L 88.921875 0 
L 79.890625 0 
L 79.890625 32.71875 
Q 79.890625 40.578125 77.09375 44.375 
Q 74.3125 48.1875 68.609375 48.1875 
Q 61.625 48.1875 57.5625 43.546875 
Q 53.515625 38.921875 53.515625 30.90625 
L 53.515625 0 
L 44.484375 0 
L 44.484375 32.71875 
Q 44.484375 40.625 41.703125 44.40625 
Q 38.921875 48.1875 33.109375 48.1875 
Q 26.21875 48.1875 22.15625 43.53125 
Q 18.109375 38.875 18.109375 30.90625 
L 18.109375 0 
L 9.078125 0 
L 9.078125 54.6875 
L 18.109375 54.6875 
L 18.109375 46.1875 
Q 21.1875 51.21875 25.484375 53.609375 
Q 29.78125 56 35.6875 56 
Q 41.65625 56 45.828125 52.96875 
Q 50 49.953125 52 44.1875 
z
" id="DejaVuSans-109"/>
      <path d="M 18.109375 8.203125 
L 18.109375 -20.796875 
L 9.078125 -20.796875 
L 9.078125 54.6875 
L 18.109375 54.6875 
L 18.109375 46.390625 
Q 20.953125 51.265625 25.265625 53.625 
Q 29.59375 56 35.59375 56 
Q 45.5625 56 51.78125 48.09375 
Q 58.015625 40.1875 58.015625 27.296875 
Q 58.015625 14.40625 51.78125 6.484375 
Q 45.5625 -1.421875 35.59375 -1.421875 
Q 29.59375 -1.421875 25.265625 0.953125 
Q 20.953125 3.328125 18.109375 8.203125 
z
M 48.6875 27.296875 
Q 48.6875 37.203125 44.609375 42.84375 
Q 40.53125 48.484375 33.40625 48.484375 
Q 26.265625 48.484375 22.1875 42.84375 
Q 18.109375 37.203125 18.109375 27.296875 
Q 18.109375 17.390625 22.1875 11.75 
Q 26.265625 6.109375 33.40625 6.109375 
Q 40.53125 6.109375 44.609375 11.75 
Q 48.6875 17.390625 48.6875 27.296875 
z
" id="DejaVuSans-112"/>
      <path d="M 30.609375 48.390625 
Q 23.390625 48.390625 19.1875 42.75 
Q 14.984375 37.109375 14.984375 27.296875 
Q 14.984375 17.484375 19.15625 11.84375 
Q 23.34375 6.203125 30.609375 6.203125 
Q 37.796875 6.203125 41.984375 11.859375 
Q 46.1875 17.53125 46.1875 27.296875 
Q 46.1875 37.015625 41.984375 42.703125 
Q 37.796875 48.390625 30.609375 48.390625 
z
M 30.609375 56 
Q 42.328125 56 49.015625 48.375 
Q 55.71875 40.765625 55.71875 27.296875 
Q 55.71875 13.875 49.015625 6.21875 
Q 42.328125 -1.421875 30.609375 -1.421875 
Q 18.84375 -1.421875 12.171875 6.21875 
Q 5.515625 13.875 5.515625 27.296875 
Q 5.515625 40.765625 12.171875 48.375 
Q 18.84375 56 30.609375 56 
z
" id="DejaVuSans-111"/>
     </defs>
     <g transform="translate(203.870313 280.276563)scale(0.1 -0.1)">
      <use xlink:href="#DejaVuSans-116"/>
      <use x="39.208984" xlink:href="#DejaVuSans-105"/>
      <use x="66.992188" xlink:href="#DejaVuSans-101"/>
      <use x="128.515625" xlink:href="#DejaVuSans-109"/>
      <use x="225.927734" xlink:href="#DejaVuSans-112"/>
      <use x="289.404297" xlink:href="#DejaVuSans-111"/>
     </g>
    </g>
   </g>
   <g id="matplotlib.axis_2">
    <g id="ytick_1">
     <g id="line2d_6">
      <defs>
       <path d="M 0 0 
L -3.5 0 
" id="mb62f576b60" style="stroke:#000000;stroke-width:0.8;"/>
      </defs>
      <g>
       <use style="stroke:#000000;stroke-width:0.8;" x="54" xlink:href="#mb62f576b60" y="245.694145"/>
      </g>
     </g>
     <g id="text_7">
      <!-- 0 -->
      <g transform="translate(40.6375 249.493364)scale(0.1 -0.1)">
       <use xlink:href="#DejaVuSans-48"/>
      </g>
     </g>
    </g>
    <g id="ytick_2">
     <g id="line2d_7">
      <g>
       <use style="stroke:#000000;stroke-width:0.8;" x="54" xlink:href="#mb62f576b60" y="209.916278"/>
      </g>
     </g>
     <g id="text_8">
      <!-- 100000 -->
      <defs>
       <path d="M 12.40625 8.296875 
L 28.515625 8.296875 
L 28.515625 63.921875 
L 10.984375 60.40625 
L 10.984375 69.390625 
L 28.421875 72.90625 
L 38.28125 72.90625 
L 38.28125 8.296875 
L 54.390625 8.296875 
L 54.390625 0 
L 12.40625 0 
z
" id="DejaVuSans-49"/>
      </defs>
      <g transform="translate(8.825 213.715496)scale(0.1 -0.1)">
       <use xlink:href="#DejaVuSans-49"/>
       <use x="63.623047" xlink:href="#DejaVuSans-48"/>
       <use x="127.246094" xlink:href="#DejaVuSans-48"/>
       <use x="190.869141" xlink:href="#DejaVuSans-48"/>
       <use x="254.492188" xlink:href="#DejaVuSans-48"/>
       <use x="318.115234" xlink:href="#DejaVuSans-48"/>
      </g>
     </g>
    </g>
    <g id="ytick_3">
     <g id="line2d_8">
      <g>
       <use style="stroke:#000000;stroke-width:0.8;" x="54" xlink:href="#mb62f576b60" y="174.13841"/>
      </g>
     </g>
     <g id="text_9">
      <!-- 200000 -->
      <g transform="translate(8.825 177.937629)scale(0.1 -0.1)">
       <use xlink:href="#DejaVuSans-50"/>
       <use x="63.623047" xlink:href="#DejaVuSans-48"/>
       <use x="127.246094" xlink:href="#DejaVuSans-48"/>
       <use x="190.869141" xlink:href="#DejaVuSans-48"/>
       <use x="254.492188" xlink:href="#DejaVuSans-48"/>
       <use x="318.115234" xlink:href="#DejaVuSans-48"/>
      </g>
     </g>
    </g>
    <g id="ytick_4">
     <g id="line2d_9">
      <g>
       <use style="stroke:#000000;stroke-width:0.8;" x="54" xlink:href="#mb62f576b60" y="138.360543"/>
      </g>
     </g>
     <g id="text_10">
      <!-- 300000 -->
      <defs>
       <path d="M 40.578125 39.3125 
Q 47.65625 37.796875 51.625 33 
Q 55.609375 28.21875 55.609375 21.1875 
Q 55.609375 10.40625 48.1875 4.484375 
Q 40.765625 -1.421875 27.09375 -1.421875 
Q 22.515625 -1.421875 17.65625 -0.515625 
Q 12.796875 0.390625 7.625 2.203125 
L 7.625 11.71875 
Q 11.71875 9.328125 16.59375 8.109375 
Q 21.484375 6.890625 26.8125 6.890625 
Q 36.078125 6.890625 40.9375 10.546875 
Q 45.796875 14.203125 45.796875 21.1875 
Q 45.796875 27.640625 41.28125 31.265625 
Q 36.765625 34.90625 28.71875 34.90625 
L 20.21875 34.90625 
L 20.21875 43.015625 
L 29.109375 43.015625 
Q 36.375 43.015625 40.234375 45.921875 
Q 44.09375 48.828125 44.09375 54.296875 
Q 44.09375 59.90625 40.109375 62.90625 
Q 36.140625 65.921875 28.71875 65.921875 
Q 24.65625 65.921875 20.015625 65.03125 
Q 15.375 64.15625 9.8125 62.3125 
L 9.8125 71.09375 
Q 15.4375 72.65625 20.34375 73.4375 
Q 25.25 74.21875 29.59375 74.21875 
Q 40.828125 74.21875 47.359375 69.109375 
Q 53.90625 64.015625 53.90625 55.328125 
Q 53.90625 49.265625 50.4375 45.09375 
Q 46.96875 40.921875 40.578125 39.3125 
z
" id="DejaVuSans-51"/>
      </defs>
      <g transform="translate(8.825 142.159762)scale(0.1 -0.1)">
       <use xlink:href="#DejaVuSans-51"/>
       <use x="63.623047" xlink:href="#DejaVuSans-48"/>
       <use x="127.246094" xlink:href="#DejaVuSans-48"/>
       <use x="190.869141" xlink:href="#DejaVuSans-48"/>
       <use x="254.492188" xlink:href="#DejaVuSans-48"/>
       <use x="318.115234" xlink:href="#DejaVuSans-48"/>
      </g>
     </g>
    </g>
    <g id="ytick_5">
     <g id="line2d_10">
      <g>
       <use style="stroke:#000000;stroke-width:0.8;" x="54" xlink:href="#mb62f576b60" y="102.582676"/>
      </g>
     </g>
     <g id="text_11">
      <!-- 400000 -->
      <g transform="translate(8.825 106.381895)scale(0.1 -0.1)">
       <use xlink:href="#DejaVuSans-52"/>
       <use x="63.623047" xlink:href="#DejaVuSans-48"/>
       <use x="127.246094" xlink:href="#DejaVuSans-48"/>
       <use x="190.869141" xlink:href="#DejaVuSans-48"/>
       <use x="254.492188" xlink:href="#DejaVuSans-48"/>
       <use x="318.115234" xlink:href="#DejaVuSans-48"/>
      </g>
     </g>
    </g>
    <g id="ytick_6">
     <g id="line2d_11">
      <g>
       <use style="stroke:#000000;stroke-width:0.8;" x="54" xlink:href="#mb62f576b60" y="66.804809"/>
      </g>
     </g>
     <g id="text_12">
      <!-- 500000 -->
      <defs>
       <path d="M 10.796875 72.90625 
L 49.515625 72.90625 
L 49.515625 64.59375 
L 19.828125 64.59375 
L 19.828125 46.734375 
Q 21.96875 47.46875 24.109375 47.828125 
Q 26.265625 48.1875 28.421875 48.1875 
Q 40.625 48.1875 47.75 41.5 
Q 54.890625 34.8125 54.890625 23.390625 
Q 54.890625 11.625 47.5625 5.09375 
Q 40.234375 -1.421875 26.90625 -1.421875 
Q 22.3125 -1.421875 17.546875 -0.640625 
Q 12.796875 0.140625 7.71875 1.703125 
L 7.71875 11.625 
Q 12.109375 9.234375 16.796875 8.0625 
Q 21.484375 6.890625 26.703125 6.890625 
Q 35.15625 6.890625 40.078125 11.328125 
Q 45.015625 15.765625 45.015625 23.390625 
Q 45.015625 31 40.078125 35.4375 
Q 35.15625 39.890625 26.703125 39.890625 
Q 22.75 39.890625 18.8125 39.015625 
Q 14.890625 38.140625 10.796875 36.28125 
z
" id="DejaVuSans-53"/>
      </defs>
      <g transform="translate(8.825 70.604028)scale(0.1 -0.1)">
       <use xlink:href="#DejaVuSans-53"/>
       <use x="63.623047" xlink:href="#DejaVuSans-48"/>
       <use x="127.246094" xlink:href="#DejaVuSans-48"/>
       <use x="190.869141" xlink:href="#DejaVuSans-48"/>
       <use x="254.492188" xlink:href="#DejaVuSans-48"/>
       <use x="318.115234" xlink:href="#DejaVuSans-48"/>
      </g>
     </g>
    </g>
    <g id="text_13">
     <!-- complejidad -->
     <defs>
      <path d="M 48.78125 52.59375 
L 48.78125 44.1875 
Q 44.96875 46.296875 41.140625 47.34375 
Q 37.3125 48.390625 33.40625 48.390625 
Q 24.65625 48.390625 19.8125 42.84375 
Q 14.984375 37.3125 14.984375 27.296875 
Q 14.984375 17.28125 19.8125 11.734375 
Q 24.65625 6.203125 33.40625 6.203125 
Q 37.3125 6.203125 41.140625 7.25 
Q 44.96875 8.296875 48.78125 10.40625 
L 48.78125 2.09375 
Q 45.015625 0.34375 40.984375 -0.53125 
Q 36.96875 -1.421875 32.421875 -1.421875 
Q 20.0625 -1.421875 12.78125 6.34375 
Q 5.515625 14.109375 5.515625 27.296875 
Q 5.515625 40.671875 12.859375 48.328125 
Q 20.21875 56 33.015625 56 
Q 37.15625 56 41.109375 55.140625 
Q 45.0625 54.296875 48.78125 52.59375 
z
" id="DejaVuSans-99"/>
      <path d="M 9.421875 75.984375 
L 18.40625 75.984375 
L 18.40625 0 
L 9.421875 0 
z
" id="DejaVuSans-108"/>
      <path d="M 9.421875 54.6875 
L 18.40625 54.6875 
L 18.40625 -0.984375 
Q 18.40625 -11.421875 14.421875 -16.109375 
Q 10.453125 -20.796875 1.609375 -20.796875 
L -1.8125 -20.796875 
L -1.8125 -13.1875 
L 0.59375 -13.1875 
Q 5.71875 -13.1875 7.5625 -10.8125 
Q 9.421875 -8.453125 9.421875 -0.984375 
z
M 9.421875 75.984375 
L 18.40625 75.984375 
L 18.40625 64.59375 
L 9.421875 64.59375 
z
" id="DejaVuSans-106"/>
      <path d="M 45.40625 46.390625 
L 45.40625 75.984375 
L 54.390625 75.984375 
L 54.390625 0 
L 45.40625 0 
L 45.40625 8.203125 
Q 42.578125 3.328125 38.25 0.953125 
Q 33.9375 -1.421875 27.875 -1.421875 
Q 17.96875 -1.421875 11.734375 6.484375 
Q 5.515625 14.40625 5.515625 27.296875 
Q 5.515625 40.1875 11.734375 48.09375 
Q 17.96875 56 27.875 56 
Q 33.9375 56 38.25 53.625 
Q 42.578125 51.265625 45.40625 46.390625 
z
M 14.796875 27.296875 
Q 14.796875 17.390625 18.875 11.75 
Q 22.953125 6.109375 30.078125 6.109375 
Q 37.203125 6.109375 41.296875 11.75 
Q 45.40625 17.390625 45.40625 27.296875 
Q 45.40625 37.203125 41.296875 42.84375 
Q 37.203125 48.484375 30.078125 48.484375 
Q 22.953125 48.484375 18.875 42.84375 
Q 14.796875 37.203125 14.796875 27.296875 
z
" id="DejaVuSans-100"/>
      <path d="M 34.28125 27.484375 
Q 23.390625 27.484375 19.1875 25 
Q 14.984375 22.515625 14.984375 16.5 
Q 14.984375 11.71875 18.140625 8.90625 
Q 21.296875 6.109375 26.703125 6.109375 
Q 34.1875 6.109375 38.703125 11.40625 
Q 43.21875 16.703125 43.21875 25.484375 
L 43.21875 27.484375 
z
M 52.203125 31.203125 
L 52.203125 0 
L 43.21875 0 
L 43.21875 8.296875 
Q 40.140625 3.328125 35.546875 0.953125 
Q 30.953125 -1.421875 24.3125 -1.421875 
Q 15.921875 -1.421875 10.953125 3.296875 
Q 6 8.015625 6 15.921875 
Q 6 25.140625 12.171875 29.828125 
Q 18.359375 34.515625 30.609375 34.515625 
L 43.21875 34.515625 
L 43.21875 35.40625 
Q 43.21875 41.609375 39.140625 45 
Q 35.0625 48.390625 27.6875 48.390625 
Q 23 48.390625 18.546875 47.265625 
Q 14.109375 46.140625 10.015625 43.890625 
L 10.015625 52.203125 
Q 14.9375 54.109375 19.578125 55.046875 
Q 24.21875 56 28.609375 56 
Q 40.484375 56 46.34375 49.84375 
Q 52.203125 43.703125 52.203125 31.203125 
z
" id="DejaVuSans-97"/>
     </defs>
     <g transform="translate(2.745312 173.789375)rotate(-90)scale(0.1 -0.1)">
      <use xlink:href="#DejaVuSans-99"/>
      <use x="54.980469" xlink:href="#DejaVuSans-111"/>
      <use x="116.162109" xlink:href="#DejaVuSans-109"/>
      <use x="213.574219" xlink:href="#DejaVuSans-112"/>
      <use x="277.050781" xlink:href="#DejaVuSans-108"/>
      <use x="304.833984" xlink:href="#DejaVuSans-101"/>
      <use x="366.357422" xlink:href="#DejaVuSans-106"/>
      <use x="394.140625" xlink:href="#DejaVuSans-105"/>
      <use x="421.923828" xlink:href="#DejaVuSans-100"/>
      <use x="485.400391" xlink:href="#DejaVuSans-97"/>
      <use x="546.679688" xlink:href="#DejaVuSans-100"/>
     </g>
    </g>
   </g>
   <g id="patch_3">
    <path d="M 54 252 
L 54 34.56 
" style="fill:none;stroke:#000000;stroke-linecap:square;stroke-linejoin:miter;stroke-width:0.8;"/>
   </g>
   <g id="patch_4">
    <path d="M 388.8 252 
L 388.8 34.56 
" style="fill:none;stroke:#000000;stroke-linecap:square;stroke-linejoin:miter;stroke-width:0.8;"/>
   </g>
   <g id="patch_5">
    <path d="M 54 252 
L 388.8 252 
" style="fill:none;stroke:#000000;stroke-linecap:square;stroke-linejoin:miter;stroke-width:0.8;"/>
   </g>
   <g id="patch_6">
    <path d="M 54 34.56 
L 388.8 34.56 
" style="fill:none;stroke:#000000;stroke-linecap:square;stroke-linejoin:miter;stroke-width:0.8;"/>
   </g>
  </g>
 </g>
 <defs>
  <clipPath id="p8c2562c3e1">
   <rect height="217.44" width="334.8" x="54" y="34.56"/>
  </clipPath>
 </defs>
</svg>
